<?xml version="1.0" encoding="utf-8"?>
<!-- Generator: Adobe Illustrator 16.0.0, SVG Export Plug-In . SVG Version: 6.00 Build 0)  -->
<!DOCTYPE svg PUBLIC "-//W3C//DTD SVG 1.1//EN" "http://www.w3.org/Graphics/SVG/1.1/DTD/svg11.dtd">
<svg version="1.1" id="Layer_1" xmlns="http://www.w3.org/2000/svg" xmlns:xlink="http://www.w3.org/1999/xlink" x="0px" y="0px"
	 width="64px" height="64px" viewBox="-159.361 -34.332 64 64" enable-background="new -159.361 -34.332 64 64"
	 xml:space="preserve">
<g id="Layer_1_1_">
</g>
<rect x="-159.361" y="-34.332" fill-rule="evenodd" clip-rule="evenodd" fill="#E15C6C" width="64" height="64"/>
<path fill-rule="evenodd" clip-rule="evenodd" fill="#FFFFFF" d="M-119.035-3.003c-0.569,0.53-1.16,1.043-1.701,1.603
	c-2.488,2.569-4.931,5.178-7.452,7.71c-1.218,1.226-2.533,2.376-4.139,3.117c-0.865,0.402-1.771,0.623-2.716,0.384
	c-1.526-0.39-2.331-1.649-2.243-3.432c0.085-1.688,0.658-3.252,1.325-4.775c0.968-2.225,2.025-4.415,3.044-6.62
	c1.232-2.675,2.497-5.339,3.688-8.032c0.39-0.882,0.589-1.847,0.865-2.78c0.051-0.186,0.038-0.393,0.051-0.591
	c-0.042-0.028-0.082-0.059-0.124-0.088c-0.298,0.299-0.644,0.568-0.893,0.905c-1.258,1.703-2.484,3.425-3.731,5.134
	c-1.331,1.819-2.629,3.67-4.038,5.433c-0.576,0.72-1.343,1.339-2.143,1.822c-1.543,0.934-3.31,0.12-3.851-1.646
	c-0.402-1.313-0.032-2.529,0.53-3.673c0.903-1.825,1.922-3.594,2.855-5.404c0.484-0.934,0.893-1.91,0.834-2.997
	c-0.044-0.71-0.362-1.298-0.922-1.734c-0.446-0.343-0.937-0.214-1.396-0.003c-1.019,0.468-1.767,1.244-2.427,2.118
	c-0.346,0.461-0.814,0.608-1.22,0.373c-0.506-0.289-0.688-0.817-0.352-1.332c0.89-1.361,2.029-2.477,3.591-3.073
	c1.736-0.66,3.167,0.057,4.145,1.59c0.746,1.163,0.886,2.429,0.481,3.699c-0.384,1.203-0.896,2.372-1.434,3.512
	c-0.673,1.433-1.469,2.81-2.136,4.239c-0.242,0.512-0.308,1.111-0.374,1.677c-0.025,0.208,0.132,0.484,0.298,0.636
	c0.067,0.063,0.421-0.076,0.554-0.211c0.721-0.745,1.494-1.458,2.085-2.297c1.606-2.278,3.109-4.628,4.701-6.919
	c0.805-1.156,1.67-2.274,2.591-3.34c0.585-0.675,1.314-1.244,2.243-1.427c1.421-0.272,2.751,0.877,2.871,2.436
	c0.085,1.065-0.041,2.108-0.412,3.094c-0.805,2.145-1.61,4.284-2.515,6.383c-1.403,3.232-2.929,6.416-4.325,9.655
	c-0.506,1.172-0.798,2.435-1.166,3.66c-0.075,0.232-0.057,0.486-0.088,0.88c0.474-0.276,0.871-0.466,1.214-0.72
	c1.623-1.191,2.981-2.655,4.339-4.125c2.191-2.363,4.39-4.726,6.637-7.041c0.761-0.782,1.647-1.462,2.702-1.879
	c1.912-0.755,3.685,0.179,4.125,2.177c0.191,0.873,0.091,1.737-0.107,2.602c-0.513,2.274-1.522,4.374-2.39,6.517
	c-0.78,1.914-1.522,3.84-2.245,5.775c-0.189,0.509-0.23,1.068-0.34,1.603c-0.056,0.273,0.095,0.465,0.34,0.452
	c0.446-0.019,0.924-0.025,1.33-0.188c1.331-0.528,2.383-1.468,3.418-2.417c0.754-0.694,1.472-1.423,2.208-2.137
	c0.616-0.604,1.101-0.606,1.711-0.013c0.478,0.459,0.956,0.921,1.415,1.396c0.455,0.465,0.497,1.008,0.038,1.454
	c-1.918,1.864-3.805,3.776-6.22,5.044c-1.62,0.854-3.32,1.318-5.157,0.713c-2.446-0.808-3.507-2.696-3.006-5.272
	c0.409-2.093,1.258-4.028,2.1-5.97c0.969-2.226,1.905-4.465,2.849-6.699c0.114-0.271,0.17-0.563,0.252-0.842
	C-118.925-2.928-118.981-2.966-119.035-3.003z"/>
</svg>
