<?xml version="1.0" encoding="utf-8"?>
<!-- Generator: Adobe Illustrator 16.0.0, SVG Export Plug-In . SVG Version: 6.00 Build 0)  -->
<!DOCTYPE svg PUBLIC "-//W3C//DTD SVG 1.1//EN" "http://www.w3.org/Graphics/SVG/1.1/DTD/svg11.dtd">
<svg version="1.1" id="Layer_1" xmlns="http://www.w3.org/2000/svg" xmlns:xlink="http://www.w3.org/1999/xlink" x="0px" y="0px"
	 width="80px" height="80px" viewBox="-167.361 -42.332 80 80" enable-background="new -167.361 -42.332 80 80"
	 xml:space="preserve">
<g id="Layer_1_1_">
</g>
<rect x="-167.361" y="-42.332" fill-rule="evenodd" clip-rule="evenodd" fill="#DB4040" width="80" height="80"/>
<path fill-rule="evenodd" clip-rule="evenodd" fill="#FFFFFF" d="M-116.954-3.171c-0.711,0.663-1.45,1.304-2.126,2.003
	c-3.11,3.211-6.163,6.472-9.315,9.637c-1.522,1.532-3.166,2.97-5.173,3.896c-1.082,0.503-2.213,0.779-3.396,0.48
	c-1.908-0.487-2.914-2.062-2.804-4.29c0.107-2.109,0.823-4.065,1.656-5.969c1.21-2.781,2.532-5.519,3.805-8.275
	c1.541-3.344,3.121-6.674,4.609-10.041c0.488-1.102,0.736-2.308,1.082-3.475c0.063-0.232,0.048-0.491,0.063-0.739
	c-0.052-0.036-0.103-0.073-0.154-0.11c-0.373,0.374-0.805,0.71-1.116,1.132c-1.572,2.129-3.105,4.281-4.665,6.417
	c-1.664,2.274-3.287,4.587-5.047,6.791c-0.72,0.899-1.679,1.673-2.678,2.277c-1.929,1.167-4.137,0.15-4.813-2.058
	c-0.503-1.641-0.04-3.162,0.663-4.591c1.129-2.282,2.403-4.492,3.569-6.755c0.605-1.167,1.116-2.388,1.042-3.746
	c-0.055-0.888-0.453-1.623-1.153-2.168c-0.558-0.429-1.171-0.268-1.745-0.004c-1.273,0.585-2.209,1.555-3.034,2.647
	c-0.432,0.576-1.017,0.761-1.525,0.467c-0.633-0.361-0.86-1.022-0.44-1.665c1.113-1.702,2.536-3.096,4.489-3.842
	c2.169-0.825,3.959,0.071,5.181,1.987c0.933,1.454,1.108,3.036,0.602,4.624c-0.479,1.504-1.121,2.965-1.792,4.39
	c-0.841,1.791-1.836,3.512-2.669,5.299c-0.302,0.64-0.385,1.39-0.467,2.096c-0.032,0.26,0.165,0.605,0.372,0.794
	c0.083,0.078,0.527-0.095,0.692-0.264c0.9-0.931,1.867-1.822,2.606-2.871c2.008-2.848,3.887-5.785,5.876-8.648
	c1.006-1.445,2.088-2.843,3.238-4.175c0.731-0.844,1.643-1.555,2.803-1.783c1.777-0.341,3.439,1.096,3.588,3.044
	c0.107,1.332-0.05,2.636-0.514,3.867c-1.007,2.681-2.013,5.355-3.144,7.979c-1.753,4.041-3.661,8.021-5.406,12.069
	c-0.633,1.465-0.998,3.043-1.458,4.575c-0.094,0.291-0.07,0.608-0.109,1.1c0.592-0.345,1.088-0.582,1.517-0.899
	c2.028-1.489,3.726-3.319,5.424-5.156c2.738-2.954,5.487-5.907,8.296-8.801c0.951-0.978,2.059-1.828,3.377-2.349
	c2.39-0.944,4.606,0.223,5.156,2.721c0.239,1.091,0.114,2.171-0.133,3.252c-0.642,2.843-1.903,5.467-2.987,8.146
	c-0.975,2.393-1.902,4.8-2.806,7.219c-0.236,0.636-0.288,1.335-0.425,2.003c-0.07,0.342,0.118,0.581,0.425,0.565
	c0.558-0.023,1.155-0.032,1.662-0.234c1.663-0.661,2.979-1.834,4.273-3.021c0.943-0.868,1.839-1.779,2.759-2.671
	c0.771-0.755,1.376-0.758,2.139-0.016c0.597,0.574,1.194,1.151,1.768,1.745c0.569,0.581,0.622,1.26,0.047,1.817
	c-2.397,2.33-4.756,4.721-7.775,6.305c-2.024,1.067-4.15,1.648-6.446,0.892c-3.058-1.01-4.384-3.37-3.757-6.591
	c0.511-2.616,1.572-5.035,2.625-7.462c1.211-2.782,2.381-5.581,3.561-8.374c0.142-0.338,0.213-0.703,0.314-1.053
	C-116.815-3.077-116.887-3.124-116.954-3.171z"/>
</svg>
