<?xml version="1.0" encoding="utf-8"?>
<!-- Generator: Adobe Illustrator 16.0.0, SVG Export Plug-In . SVG Version: 6.00 Build 0)  -->
<!DOCTYPE svg PUBLIC "-//W3C//DTD SVG 1.1//EN" "http://www.w3.org/Graphics/SVG/1.1/DTD/svg11.dtd">
<svg version="1.1" id="Layer_1" xmlns="http://www.w3.org/2000/svg" xmlns:xlink="http://www.w3.org/1999/xlink" x="0px" y="0px"
	 width="50px" height="50px" viewBox="0 0 50 50" enable-background="new 0 0 50 50" xml:space="preserve">
<g>
	<circle fill-rule="evenodd" clip-rule="evenodd" fill="#FDBE2D" cx="25" cy="25" r="24"/>
	<rect x="0" y="0" fill-rule="evenodd" clip-rule="evenodd" fill="none" width="50" height="50"/>
	<g>
		<g>
			<path fill="#FFFFFF" d="M36,18c0,0.55-0.413,1-0.915,1H14.916C14.412,19,14,18.55,14,18v-2.001C14,15.45,14.412,15,14.916,15
				h20.169C35.586,15,36,15.45,36,15.999V18z"/>
		</g>
		<g>
			<path fill="#FFFFFF" d="M36,25.999c0,0.551-0.414,1-0.918,1H14.916c-0.504,0-0.916-0.45-0.916-1V24c0-0.549,0.412-1,0.916-1
				h20.166C35.585,23,36,23.451,36,24V25.999z"/>
		</g>
		<g>
			<path fill="#FFFFFF" d="M36,34c0,0.553-0.413,1-0.916,1H14.916C14.412,35,14,34.552,14,34v-2c0-0.549,0.412-1,0.916-1h20.168
				C35.586,31,36,31.451,36,32V34z"/>
		</g>
	</g>
</g>
</svg>
